<svg width="32" height="32" viewBox="0 0 32 32" fill="none" xmlns="http://www.w3.org/2000/svg">
<g clip-path="url(#clip0_166_24280)">
<rect width="32" height="32" rx="5" fill="white"/>
<path fill-rule="evenodd" clip-rule="evenodd" d="M0 32H32V0H0V32Z" fill="#5172B8"/>
<path d="M38.4996 1H-8V31.9991H38.4996V1Z" fill="#F0F0F0"/>
<path d="M38.4996 11.1086H-8V21.8905H38.4996V11.1086Z" fill="#0052B4"/>
<path d="M38.4996 21.8904H-8V31.999H38.4996V21.8904Z" fill="#D80027"/>
<path d="M3.75732 9.76074V17.4928C3.75732 21.8911 9.5032 23.2386 9.5032 23.2386C9.5032 23.2386 15.2489 21.8909 15.2489 17.4928V9.76074H3.75732Z" fill="#F0F0F0"/>
<path d="M5.271 9.9873V17.4291C5.271 17.9261 5.38134 18.3955 5.60003 18.8355C7.76971 18.8355 11.0128 18.8355 13.4078 18.8355C13.6265 18.3956 13.7368 17.9262 13.7368 17.4291V9.9873H5.271Z" fill="#D80027"/>
<path d="M12.0994 15.176H10.1536V13.8789H11.4509V12.5817H10.1536V11.2844H8.85642V12.5817H7.55934V13.8789H8.85642V15.176H6.91052V16.4733H8.85642V17.7705H10.1536V16.4733H12.0994V15.176Z" fill="#F0F0F0"/>
<path d="M7.36914 20.6461C8.20504 21.1713 9.06383 21.4764 9.50358 21.612C9.94333 21.4764 10.8021 21.1714 11.638 20.6461C12.481 20.1163 13.0721 19.5103 13.4076 18.8352C13.0375 18.5734 12.5859 18.419 12.0981 18.419C11.9205 18.419 11.7479 18.4401 11.5821 18.4787C11.2305 17.6798 10.4325 17.1218 9.50376 17.1218C8.57495 17.1218 7.77701 17.6798 7.42545 18.4787C7.25952 18.4401 7.08687 18.419 6.90941 18.419C6.42153 18.419 5.96997 18.5735 5.59998 18.8352C5.93519 19.5103 6.52615 20.1163 7.36914 20.6461Z" fill="#0052B4"/>
</g>
<rect x="0.5" y="0.5" width="31" height="31" rx="4.5" stroke="#706D6D"/>
<defs>
<clipPath id="clip0_166_24280">
<rect width="32" height="32" rx="5" fill="white"/>
</clipPath>
</defs>
</svg>
