<svg width="27" height="15" viewBox="0 0 27 15" fill="none" xmlns="http://www.w3.org/2000/svg">
<path d="M23.0045 4.48372C22.8461 4.48394 22.6913 4.53222 22.5596 4.62248C22.428 4.71274 22.3254 4.84092 22.2649 4.99082C22.2044 5.14073 22.1886 5.30564 22.2196 5.46473C22.2505 5.62381 22.3268 5.76993 22.4388 5.88463C22.5509 5.99934 22.6936 6.07747 22.8489 6.10917C23.0043 6.14087 23.1654 6.12471 23.3118 6.06274C23.4582 6.00076 23.5834 5.89575 23.6715 5.76097C23.7597 5.62618 23.8068 5.46767 23.807 5.30546C23.807 5.08752 23.7225 4.87851 23.572 4.7244C23.4215 4.57029 23.2173 4.48372 23.0045 4.48372ZM24.022 1.73978C23.3732 1.55525 22.6887 1.54629 22.0355 1.71379C21.3823 1.88128 20.7828 2.2195 20.2955 2.69535C19.6488 3.53183 19.1861 4.50136 18.9388 5.53772C18.8623 5.95738 18.6841 6.35062 18.4204 6.6813C18.2359 6.88158 18.015 7.04311 17.7701 7.15688C17.289 6.3728 16.8773 5.5463 16.5399 4.68722C16.4409 4.4222 16.3284 4.16267 16.2029 3.90971C15.6233 2.73358 14.7361 1.74531 13.6403 1.05501C12.5445 0.36472 11.283 -0.000492313 9.99638 6.78546e-05C8.61609 -0.00611339 7.26548 0.410148 6.11786 1.19544C4.97024 1.98073 4.07796 3.09923 3.55552 4.4074C3.54363 4.43284 3.53607 4.4616 3.52527 4.48814L3.52311 4.49478C3.48099 4.59432 3.44102 4.69496 3.4097 4.79561C3.05599 5.83411 2.58894 6.82841 2.0174 7.75964C1.48198 8.61684 0.858026 9.41257 0.156321 10.1331C0.0783835 10.2137 0.0265295 10.3168 0.0077878 10.4286C-0.0109539 10.5404 0.00432307 10.6554 0.0515477 10.758C0.100137 10.8595 0.177403 10.9437 0.27332 10.9997C0.369237 11.0557 0.479379 11.0809 0.589456 11.0721C1.54705 10.977 2.51257 11.0075 3.46262 11.1627C3.25811 11.2591 3.0436 11.3315 2.82318 11.3784C2.69357 11.4038 2.56395 11.4182 2.43433 11.4326C2.00386 11.449 1.58439 11.5764 1.21486 11.8031C1.01848 11.9252 0.858556 12.1 0.752479 12.3087C0.646402 12.5173 0.598236 12.7518 0.61322 12.9865C0.656645 13.325 0.780616 13.6473 0.974232 13.9252C1.16785 14.2031 1.42518 14.428 1.7236 14.5802C2.19304 14.808 2.70661 14.9244 3.22607 14.9209C3.56471 14.9228 3.90166 14.8717 4.2252 14.7693C5.40434 14.3557 6.44127 13.6013 7.2107 12.5972L7.27335 12.6337C8.03647 13.1919 8.94352 13.507 9.8808 13.5395H9.93049C10.8161 13.5163 11.6763 13.2313 12.4072 12.7189L12.4634 12.6868C13.291 13.45 14.2533 14.0443 15.2988 14.4376C16.0963 14.7663 16.9426 14.9541 17.8015 14.9928C18.1162 15.02 18.4328 14.9703 18.7252 14.8478C19.0175 14.7253 19.2773 14.5336 19.4832 14.2882C19.6436 14.069 19.7569 13.8175 19.8155 13.5503C19.8742 13.283 19.8769 13.0061 19.8235 12.7377C19.7783 12.5015 19.6833 12.2782 19.5453 12.0834C19.4073 11.8885 19.2294 11.7269 19.0242 11.6096C18.6272 11.41 18.1954 11.2934 17.7539 11.2667C17.4768 11.2486 17.2038 11.1886 16.9438 11.0886L16.9125 11.0709C17.6466 10.9252 18.3834 10.7939 19.1225 10.6772C19.2149 10.6622 19.302 10.623 19.3752 10.5633H19.3763C20.0978 9.94991 20.9493 9.51743 21.8628 9.30027C22.4585 9.18193 23.0663 9.14068 23.672 9.1775C24.0828 9.24362 24.5024 9.22442 24.9058 9.12106C25.3093 9.0177 25.6882 8.83228 26.0202 8.57585C26.5161 8.09647 26.8383 7.45891 26.934 6.76757C27.115 5.71154 26.9208 4.62406 26.3867 3.70187C25.8526 2.77968 25.0138 2.08368 24.022 1.73978ZM9.99638 1.10605C11.0128 1.10229 12.0125 1.37145 12.8957 1.88667C13.7789 2.4019 14.5147 3.14519 15.0298 4.04243C14.1869 4.8075 13.2056 5.39592 12.1415 5.7744C10.8959 6.2137 9.56185 6.3229 8.26384 6.09182C6.97455 5.85427 5.76008 5.30231 4.72314 4.48261C5.20353 3.46938 5.95299 2.61522 6.88564 2.01803C7.81828 1.42083 8.89638 1.10477 9.99638 1.10605ZM3.899 13.7153C3.33739 13.8843 2.73507 13.8395 2.20318 13.5893C2.07524 13.5227 1.96315 13.4282 1.87486 13.3124C1.78657 13.1966 1.72424 13.0623 1.69228 12.919C1.68904 12.8726 1.6858 12.8107 1.81109 12.7244C2.03978 12.6012 2.2937 12.5353 2.55207 12.5319C2.71085 12.5131 2.87179 12.4943 3.03165 12.4634C3.7284 12.3214 4.37563 11.992 4.90677 11.5089C5.01046 11.5443 5.11199 11.572 5.21893 11.6118C5.40795 11.6781 5.58726 11.7522 5.78384 11.833C5.95666 11.9104 6.1068 11.9856 6.2537 12.0608C5.62758 12.8182 4.81438 13.3896 3.899 13.7153ZM6.30123 10.0291C6.15767 10.2512 6.00263 10.4654 5.83677 10.6706C5.74712 10.6352 5.66394 10.5987 5.57213 10.5666C5.35869 10.4838 5.14088 10.4133 4.91973 10.3554C3.91048 10.0603 2.86608 9.91032 1.81649 9.90966C2.21994 9.41597 2.59192 8.89619 2.93012 8.35355C3.47257 7.45904 3.92564 6.51085 4.28245 5.52334C5.26114 6.23602 6.364 6.75034 7.5315 7.03854C7.397 7.71516 7.18075 8.372 6.88774 8.99391C6.71633 9.35249 6.52071 9.69839 6.30231 10.0291H6.30123ZM12.3176 11.5067L11.8812 11.7544C11.3 12.1793 10.6077 12.4159 9.89377 12.4335C9.14638 12.3993 8.42589 12.1378 7.82422 11.6826L7.33816 11.3928C7.17901 11.3041 7.01878 11.2174 6.8575 11.1329C6.97199 10.978 7.08649 10.8188 7.19774 10.6462C7.44352 10.2753 7.66368 9.8873 7.85663 9.48497C8.19108 8.7742 8.43711 8.02327 8.58896 7.24978C8.95 7.29307 9.31315 7.31522 9.67666 7.31614C10.4068 7.29891 11.1322 7.19084 11.8369 6.9943C11.9261 7.81259 12.1186 8.61559 12.4094 9.38322C12.5437 9.74854 12.7074 10.1018 12.8987 10.4394C13.0046 10.6462 13.1471 10.8409 13.2724 11.0433C12.957 11.1838 12.6438 11.332 12.3176 11.5067ZM17.6254 12.3638C17.9273 12.3795 18.2239 12.4519 18.5003 12.5773C18.5697 12.6183 18.6294 12.6742 18.6755 12.7413C18.7216 12.8083 18.7529 12.8848 18.7671 12.9655C18.7889 13.0778 18.7877 13.1934 18.7635 13.3052C18.7393 13.417 18.6927 13.5224 18.6267 13.6147C18.3729 13.9509 17.4623 14.0659 15.6347 13.3858C14.8648 13.0853 14.1432 12.6686 13.4939 12.1493C13.7499 12.0298 14.0091 11.917 14.2856 11.8086C14.3623 11.7755 14.4509 11.7401 14.5394 11.7058C14.8505 11.5852 15.2188 11.4746 15.477 11.4016C15.7772 11.6871 16.1209 11.9206 16.4945 12.0929C16.8551 12.2438 17.2368 12.3352 17.6254 12.3638ZM15.5105 10.2481C15.504 10.2503 14.8581 10.414 14.2867 10.6241C14.1264 10.3929 13.9786 10.1529 13.8438 9.90524C13.6772 9.61178 13.5345 9.30475 13.4172 8.98728C13.1395 8.23739 12.9671 7.45093 12.9052 6.65144C13.8535 6.26572 14.7366 5.72978 15.5224 5.06325L15.5353 5.09422C15.914 6.05268 16.376 6.97435 16.9157 7.84811L17.0454 8.06489C17.3726 8.62894 17.7237 9.18414 18.092 9.72828C16.8887 9.93621 15.9749 10.132 15.5105 10.2481ZM25.8733 6.55633C25.8209 7.00498 25.6227 7.42256 25.3106 7.74194C24.9271 8.08258 24.4918 8.08811 23.6968 8.07042C23.0062 8.03238 22.3136 8.08216 21.6349 8.21862C20.7468 8.42737 19.908 8.81416 19.1668 9.35667C18.8787 8.9423 18.6026 8.52055 18.3383 8.09143C18.6703 7.92308 18.9702 7.69535 19.224 7.41899C19.6145 6.93908 19.8818 6.36695 20.0017 5.75449C20.2066 4.92185 20.5737 4.14015 21.0808 3.45626C21.4334 3.12588 21.8623 2.89292 22.3272 2.77933C22.7921 2.66575 23.2776 2.67529 23.7379 2.80705C24.4671 3.07589 25.0806 3.59886 25.471 4.28435C25.8614 4.96983 26.0039 5.77413 25.8733 6.55633Z" fill="#3C89FE"/>
</svg>
