<svg width="26" height="14" viewBox="0 0 26 14" fill="none" xmlns="http://www.w3.org/2000/svg">
<path d="M8.5 0.500054C7.7 0.100054 5.33333 2 4 3L3 5L2.5 6.5L1.5 8.5L0.5 10V10.5H3L4 11.2718L2 12L1 12.5L0.5 13L1 14H3L4.5 13.5L6 12H7L9 12.5H10L11.2031 12L12.5 12.5L13 13L14 13.5C14.3333 13.6667 15.2 14 16 14H17.5C17.9 14 18 13.6667 18 13.5C18 13.1667 17.7828 12.7828 17.5 12.5C17 12 16.5 12.5 14.5 11.2718C13.7 11.0892 14 11.1812 14 11L14.5 10.5L15.5 10L17 10L18 9.5C18.3333 9.5 19.1 9.4 19.5 9C20 8.5 20 8.5 20.5 8.5L22 8.5H24L25 7C25.1667 6.83333 25 6.4 25 6V5L24.5 3.5L23.5 2.5L21.5 2L20 3.00005L19 5L17.5 7L17 8L15.5 6.5L14.5 4.5L14 3.5L12.5 1.5C11.5 1.33335 9.3 0.900054 8.5 0.500054Z" fill="#3C89FE"/>
</svg>
